<svg width="32" height="32" viewBox="0 0 32 32" fill="none" xmlns="http://www.w3.org/2000/svg">
<rect width="32" height="32" rx="8" fill="url(#paint0_linear_4_5)"/>
<path d="M17.3 7.046C17.503 7.10984 17.6803 7.23678 17.8062 7.40836C17.9321 7.57993 18 7.78719 18 8V13H22C22.1829 12.9999 22.3624 13.05 22.5188 13.1448C22.6752 13.2396 22.8026 13.3755 22.8872 13.5377C22.9717 13.6999 23.0102 13.8822 22.9983 14.0648C22.9865 14.2473 22.9248 14.4231 22.82 14.573L15.82 24.573C15.6982 24.7475 15.5238 24.8786 15.3223 24.9473C15.1208 25.0159 14.9027 25.0184 14.6997 24.9545C14.4967 24.8906 14.3193 24.7635 14.1935 24.5919C14.0676 24.4202 13.9999 24.2129 14 24V19H10C9.81708 19.0001 9.63764 18.95 9.48122 18.8552C9.32479 18.7604 9.19736 18.6245 9.11281 18.4623C9.02825 18.3001 8.98981 18.1178 9.00165 17.9352C9.0135 17.7527 9.07519 17.5769 9.18 17.427L16.18 7.427C16.302 7.25279 16.4764 7.12201 16.6778 7.05368C16.8792 6.98534 17.0972 6.983 17.3 7.047V7.046Z" fill="white"/>
<defs>
<linearGradient id="paint0_linear_4_5" x1="16" y1="0" x2="16" y2="32" gradientUnits="userSpaceOnUse">
<stop stop-color="#F9832B"/>
<stop offset="1" stop-color="#FA9E54"/>
</linearGradient>
</defs>
</svg>
